<?xml version="1.0" encoding="UTF-8"?>
<!DOCTYPE svg PUBLIC "-//W3C//DTD SVG 1.1//EN" "http://www.w3.org/Graphics/SVG/1.1/DTD/svg11.dtd">
<!-- Creator: CorelDRAW 2020 (64-Bit) -->
<svg xmlns="http://www.w3.org/2000/svg" xml:space="preserve" width="583px" height="656px" version="1.1" style="shape-rendering:geometricPrecision; text-rendering:geometricPrecision; image-rendering:optimizeQuality; fill-rule:evenodd; clip-rule:evenodd"
viewBox="0 0 32.26 36.31"
 xmlns:xlink="http://www.w3.org/1999/xlink"
 xmlns:xodm="http://www.corel.com/coreldraw/odm/2003">
 <defs>
  <style type="text/css">
   <![CDATA[
    .fil0 {fill:#000853}
    .fil1 {fill:#B6E802}
   ]]>
  </style>
 </defs>
 <g id="Capa_x0020_1">
  <metadata id="CorelCorpID_0Corel-Layer"/>
  <g id="_2085831338160">
   <path class="fil0" d="M11.24 30.15l0 1.61c0,0.38 -0.16,0.77 -0.44,1.04 -0.21,0.22 -0.6,0.38 -0.98,0.38l-0.33 0c-0.5,0 -0.93,-0.22 -1.26,-0.49 -0.33,-0.33 -0.5,-0.77 -0.5,-1.21l0 -1.22c-2.18,0.3 -3.71,1.05 -3.71,1.91 0,1.15 2.67,2.07 5.97,2.07 3.29,0 5.97,-0.92 5.97,-2.07 0,-0.99 -2.02,-1.82 -4.72,-2.02zm-1.97 -30.15l0.49 0c1.37,0 2.53,1.15 2.53,2.52l0 0c0,0.77 -0.39,1.48 -1.05,1.92l0 23.7c2.2,0.11 4.12,0.49 5.65,1.04 1.92,0.77 3.07,1.81 3.07,3.02 0,1.2 -1.15,2.3 -3.07,3.01 -1.81,0.66 -4.22,1.1 -6.91,1.1 -2.63,0 -5.1,-0.44 -6.85,-1.1 -1.92,-0.71 -3.13,-1.81 -3.13,-3.01 0,-1.21 1.21,-2.25 3.13,-3.02 1.26,-0.49 2.85,-0.82 4.6,-0.99l0 -23.75c-0.6,-0.44 -0.98,-1.15 -0.98,-1.92l0 0c0,-1.37 1.15,-2.46 2.52,-2.46l0 -0.06z"/>
   <path class="fil1" d="M12.9 15.03c1.61,0.11 3.23,0.39 4.84,0.82 0,-0.87 0,-1.74 0,-2.6 0,-0.87 0,-1.74 0,-2.61 -1.61,-0.43 -3.23,-0.71 -4.84,-0.81 0,0.87 0,1.73 0,2.6 0,0.87 0,1.74 0,2.6z"/>
   <path class="fil1" d="M22.58 7.36c-1.61,-0.7 -3.23,-1.36 -4.84,-1.93 0,0.87 0,1.74 0,2.61 0,0.87 0,1.74 0,2.6 1.61,0.57 3.23,1.23 4.84,1.93 0,-0.87 0,-1.74 0,-2.6 0,-0.87 0,-1.74 0,-2.61z"/>
   <path class="fil1" d="M22.58 17.77c-1.61,-0.7 -3.23,-1.36 -4.84,-1.92 0,0.87 0,1.74 0,2.6 0,0.87 0,1.74 0,2.61 1.61,0.56 3.23,1.22 4.84,1.92 0,-0.87 0,-1.73 0,-2.6 0,-0.87 0,-1.74 0,-2.61z"/>
   <path class="fil1" d="M22.58 17.77c1.61,0.7 3.23,1.36 4.84,1.93 0,-0.87 0,-1.74 0,-2.6 0,-0.87 0,-1.74 0,-2.61 -1.61,-0.57 -3.23,-1.22 -4.84,-1.92 0,0.87 0,1.73 0,2.6 0,0.87 0,1.74 0,2.6z"/>
   <path class="fil1" d="M27.42 9.28c1.61,0.43 3.23,0.71 4.84,0.82 0,0.87 0,1.73 0,2.6 0,0.87 0,1.74 0,2.61 -1.61,-0.11 -3.23,-0.39 -4.84,-0.82 0,-0.86 0,-1.73 0,-2.6 0,-0.87 0,-1.74 0,-2.61z"/>
   <path class="fil1" d="M27.42 19.7c1.61,0.43 3.23,0.71 4.84,0.81 0,0.87 0,1.74 0,2.61 0,0.86 0,1.73 0,2.6 -1.61,-0.11 -3.23,-0.39 -4.84,-0.82 0,-0.86 0,-1.73 0,-2.6 0,-0.86 0,-1.73 0,-2.6z"/>
   <path class="fil0" d="M12.9 4.62c1.61,0.1 3.23,0.38 4.84,0.81 0,0.87 0,1.74 0,2.61 0,0.87 0,1.74 0,2.6 1.61,0.57 3.23,1.23 4.84,1.93 0,-0.87 0,-1.74 0,-2.6 0,-0.87 0,-1.74 0,-2.61 1.61,0.7 3.23,1.36 4.84,1.92 0,0.87 0,1.74 0,2.61 0,0.87 0,1.74 0,2.6 0,0.87 0,1.74 0,2.61 0,0.86 0,1.73 0,2.6 0,0.87 0,1.74 0,2.6 0,0.87 0,1.74 0,2.6 -1.61,-0.56 -3.23,-1.22 -4.84,-1.92 0,-0.87 0,-1.73 0,-2.6 0,-0.87 0,-1.74 0,-2.61 -1.61,-0.7 -3.23,-1.36 -4.84,-1.92 0,0.87 0,1.74 0,2.6 0,0.87 0,1.74 0,2.61 -1.61,-0.43 -3.23,-0.71 -4.84,-0.82 0,-0.86 0,-1.73 0,-2.6 0,-0.87 0,-1.74 0,-2.61 1.61,0.11 3.23,0.39 4.84,0.82 0,-0.87 0,-1.74 0,-2.6 0,-0.87 0,-1.74 0,-2.61 -1.61,-0.43 -3.23,-0.71 -4.84,-0.81 0,-0.87 0,-1.74 0,-2.61 0,-0.86 0,-1.74 0,-2.6zm14.52 9.87c-1.61,-0.57 -3.23,-1.22 -4.84,-1.92 0,0.87 0,1.73 0,2.6 0,0.87 0,1.74 0,2.6 1.61,0.7 3.23,1.36 4.84,1.93 1.61,0.43 3.23,0.71 4.84,0.81 0,-0.86 0,-1.73 0,-2.6 0,-0.87 0,-1.74 0,-2.6 -1.61,-0.11 -3.23,-0.39 -4.84,-0.82z"/>
  </g>
 </g>
</svg>
