<?xml version="1.0" encoding="UTF-8"?>
<!DOCTYPE svg PUBLIC "-//W3C//DTD SVG 1.1//EN" "http://www.w3.org/Graphics/SVG/1.1/DTD/svg11.dtd">
<!-- Creator: CorelDRAW 2020 (64-Bit) -->
<svg xmlns="http://www.w3.org/2000/svg" xml:space="preserve" width="650px" height="656px" version="1.1" style="shape-rendering:geometricPrecision; text-rendering:geometricPrecision; image-rendering:optimizeQuality; fill-rule:evenodd; clip-rule:evenodd"
viewBox="0 0 35.42 35.74"
 xmlns:xlink="http://www.w3.org/1999/xlink"
 xmlns:xodm="http://www.corel.com/coreldraw/odm/2003">
 <defs>
  <style type="text/css">
   <![CDATA[
    .fil1 {fill:#000853}
    .fil0 {fill:#B6E802}
   ]]>
  </style>
 </defs>
 <g id="Capa_x0020_1">
  <metadata id="CorelCorpID_0Corel-Layer"/>
  <g id="_2088486903680">
   <path class="fil0" d="M24.4 7.94c0,3.51 0,6.96 0,10.42 4.81,-0.6 9.45,-1.41 11.02,-5.19 -6.86,-0.59 -10.1,-2.48 -11.02,-5.23l0 0z"/>
   <path class="fil0" d="M12.74 4.43c1.84,-0.54 3.62,-0.81 5.35,-0.7 1.72,0.05 3.34,0.43 4.96,1.07l0.11 0.06 0 12.09 -0.21 -0.05c-1.35,-0.81 -2.87,-1.19 -4.59,-1.19 -1.68,-0.05 -3.57,0.27 -5.56,0.81l-0.17 0.06 0 -12.1 0.11 -0.05z"/>
   <path class="fil1" d="M11.07 29.68l0 1.58c0,0.38 -0.16,0.76 -0.43,1.03 -0.22,0.21 -0.6,0.37 -0.98,0.37l-0.32 0c-0.49,0 -0.92,-0.21 -1.24,-0.48 -0.33,-0.32 -0.49,-0.76 -0.49,-1.19l0 -1.21c-2.14,0.31 -3.66,1.04 -3.66,1.89 0,1.12 2.63,2.04 5.88,2.04 3.25,0 5.88,-0.92 5.88,-2.04 0,-0.98 -1.99,-1.79 -4.64,-1.99zm-1.95 -29.68l0.49 0c1.35,0 2.48,1.13 2.48,2.48l0 0c0,0.76 -0.37,1.46 -1.02,1.89l0 23.33c2.16,0.11 4.05,0.48 5.56,1.02 1.89,0.76 3.02,1.78 3.02,2.97 0,1.19 -1.13,2.27 -3.02,2.97 -1.78,0.65 -4.16,1.08 -6.8,1.08 -2.6,0 -5.03,-0.43 -6.75,-1.08 -1.89,-0.7 -3.08,-1.78 -3.08,-2.97 0,-1.19 1.19,-2.21 3.08,-2.97 1.24,-0.48 2.81,-0.81 4.53,-0.97l0 -23.38c-0.59,-0.43 -0.97,-1.13 -0.97,-1.89l0 0c0,-1.35 1.13,-2.43 2.48,-2.43l0 -0.05z"/>
  </g>
 </g>
</svg>
