<?xml version="1.0" encoding="UTF-8"?>
<!DOCTYPE svg PUBLIC "-//W3C//DTD SVG 1.1//EN" "http://www.w3.org/Graphics/SVG/1.1/DTD/svg11.dtd">
<!-- Creator: CorelDRAW 2020 (64-Bit) -->
<svg xmlns="http://www.w3.org/2000/svg" xml:space="preserve" width="651px" height="651px" version="1.1" style="shape-rendering:geometricPrecision; text-rendering:geometricPrecision; image-rendering:optimizeQuality; fill-rule:evenodd; clip-rule:evenodd"
viewBox="0 0 47.29 47.29"
 xmlns:xlink="http://www.w3.org/1999/xlink"
 xmlns:xodm="http://www.corel.com/coreldraw/odm/2003">
 <defs>
  <style type="text/css">
   <![CDATA[
    .fil0 {fill:#000853}
    .fil1 {fill:#B6E802}
   ]]>
  </style>
 </defs>
 <g id="Capa_x0020_1">
  <metadata id="CorelCorpID_0Corel-Layer"/>
  <g id="_2085458821520">
   <polygon class="fil0" points="13.9,0 33.39,0 33.47,0.03 47.26,13.82 47.29,13.9 47.29,33.39 47.26,33.47 33.47,47.26 33.39,47.29 13.9,47.29 13.82,47.26 0.03,33.47 0,33.39 0,13.9 0.03,13.82 13.82,0.03 "/>
   <polygon class="fil1" points="3.18,15.17 3.18,32.12 15.17,44.11 32.12,44.11 44.11,32.12 44.11,15.17 32.12,3.18 15.17,3.18 "/>
   <path class="fil0" d="M21.56 22.18c-0.22,0 -0.46,-0.18 -0.52,-0.39 -0.06,-0.23 -0.02,-0.69 -0.02,-0.95l0 -9.66c0,-0.61 0.02,-1.34 -0.21,-1.74 -0.6,-1.06 -2.16,-0.96 -2.67,-0.05 -0.37,0.66 -0.22,4.71 -0.22,5.62l-0.01 6.73c-0.11,0.54 -1.12,0.77 -1.15,-0.47 -0.05,-2.36 0,-5.41 0,-7.84 0,-0.63 0.06,-0.97 -0.23,-1.35 -0.73,-0.98 -2.5,-0.59 -2.5,0.92l0 20.72c0,1 0.16,2.04 0.62,2.6 0.5,0.59 0.2,0.45 0.3,1.28 0.04,0.41 0.33,0.86 0.78,0.86l11.73 0c0.25,0 0.5,-0.2 0.62,-0.35 0.16,-0.22 0.17,-0.44 0.17,-0.8 -0.01,-1.21 -0.02,-0.74 0.59,-1.36l3.56 -3.25c0.87,-0.88 1.8,-1.43 1.8,-3.11l0 -5.83c0,-2.28 -2.8,-2.18 -3.03,-0.49 -0.18,1.23 -0.01,3.17 -0.06,4.5 -0.03,0.57 -0.33,0.85 -0.86,0.85 -0.95,0 -0.85,-0.89 -0.85,-1.83 0,-2.24 0.09,-15.12 -0.06,-15.98 -0.08,-0.46 -0.18,-0.59 -0.47,-0.87 -0.71,-0.69 -1.88,-0.42 -2.26,0.2 -0.27,0.45 -0.25,0.88 -0.25,1.58 0,1.02 0.09,9.54 -0.07,10.02 -0.2,0.64 -1,0.52 -1.08,-0.05l0 -11.55c0,-0.6 0.03,-1.5 -0.14,-1.92 -0.23,-0.53 -0.73,-0.82 -1.26,-0.87l-0.31 0c-0.5,0.05 -0.98,0.32 -1.23,0.83 -0.21,0.43 -0.1,1.43 -0.1,2.02 0,1.13 0.06,10.92 -0.05,11.44 -0.06,0.3 -0.23,0.54 -0.56,0.54z"/>
  </g>
 </g>
</svg>
