<?xml version="1.0" encoding="UTF-8"?>
<!DOCTYPE svg PUBLIC "-//W3C//DTD SVG 1.1//EN" "http://www.w3.org/Graphics/SVG/1.1/DTD/svg11.dtd">
<svg xmlns="http://www.w3.org/2000/svg" version="1.1" width="2035px" height="2035px" style="shape-rendering:geometricPrecision; text-rendering:geometricPrecision; image-rendering:optimizeQuality; fill-rule:evenodd; clip-rule:evenodd" xmlns:xlink="http://www.w3.org/1999/xlink">
<g><path style="opacity:0.997" fill="#fe0000" d="M 596.5,-0.5 C 876.833,-0.5 1157.17,-0.5 1437.5,-0.5C 1637.11,197.448 1836.11,396.115 2034.5,595.5C 2034.5,876.5 2034.5,1157.5 2034.5,1438.5C 1836.17,1637.5 1637.5,1836.17 1438.5,2034.5C 1157.83,2034.5 877.167,2034.5 596.5,2034.5C 595.737,2033.73 594.737,2033.23 593.5,2033C 396,1835.5 198.5,1638 1,1440.5C 0.76791,1439.26 0.26791,1438.26 -0.5,1437.5C -0.5,1157.17 -0.5,876.833 -0.5,596.5C 198.167,397.167 397.167,198.167 596.5,-0.5 Z"/></g>
<g><path style="opacity:1" fill="#fffefe" d="M 652.5,136.5 C 895.834,136.167 1139.17,136.5 1382.5,137.5C 1553.82,309.32 1725.32,480.986 1897,652.5C 1897.67,895.833 1897.67,1139.17 1897,1382.5C 1725.5,1554 1554,1725.5 1382.5,1897C 1139.17,1897.67 895.833,1897.67 652.5,1897C 481,1725.5 309.5,1554 138,1382.5C 137.333,1138.83 137.333,895.167 138,651.5C 309.701,479.965 481.201,308.299 652.5,136.5 Z"/></g>
<g><path style="opacity:1" fill="#ff0000" d="M 1005.5,316.5 C 1034.82,312.756 1057.99,322.756 1075,346.5C 1079.47,354.252 1082.14,362.585 1083,371.5C 1083.98,560.531 1084.98,749.531 1086,938.5C 1093.79,953.304 1105.29,957.137 1120.5,950C 1127.29,944.864 1131.12,938.03 1132,929.5C 1132.61,915.497 1133.27,901.497 1134,887.5C 1134.33,746.833 1134.67,606.167 1135,465.5C 1137.92,437.244 1153.09,419.411 1180.5,412C 1215.17,405.764 1241.01,417.931 1258,448.5C 1262.27,460.452 1264.27,472.786 1264,485.5C 1265.09,579.495 1265.59,673.495 1265.5,767.5C 1265.05,906.834 1264.89,1046.17 1265,1185.5C 1264.5,1222.98 1282.34,1237.15 1318.5,1228C 1331.01,1221.8 1337.51,1211.63 1338,1197.5C 1337.91,1141.5 1337.91,1085.5 1338,1029.5C 1338.45,1015.25 1340.45,1001.25 1344,987.5C 1357.99,958.416 1381.16,945.25 1413.5,948C 1447.8,954.677 1466.96,975.51 1471,1010.5C 1471.67,1102.5 1471.67,1194.5 1471,1286.5C 1468.44,1315.94 1457.44,1341.6 1438,1363.5C 1422.47,1379.36 1406.64,1394.86 1390.5,1410C 1339.53,1455.96 1288.87,1502.3 1238.5,1549C 1232.09,1554.29 1225.59,1559.45 1219,1564.5C 1217.56,1566.27 1216.56,1568.27 1216,1570.5C 1215.67,1585.83 1215.33,1601.17 1215,1616.5C 1214.14,1636.03 1204.31,1648.53 1185.5,1654C 1099.83,1654.17 1014.17,1654.33 928.5,1654.5C 841.457,1654.66 754.457,1654.16 667.5,1653C 652.776,1645.43 644.61,1633.26 643,1616.5C 642.682,1604.82 642.682,1593.16 643,1581.5C 640.853,1576.54 638.186,1571.87 635,1567.5C 626.988,1559.14 620.988,1549.47 617,1538.5C 608.956,1515.53 604.622,1491.86 604,1467.5C 603.333,1161.5 603.333,855.5 604,549.5C 609.263,520.903 626.097,503.403 654.5,497C 686.848,493.907 708.681,507.407 720,537.5C 720.052,666.508 720.719,795.508 722,924.5C 722.611,937.748 728.778,947.248 740.5,953C 754.935,955.539 764.768,950.039 770,936.5C 770.495,786.498 770.495,636.498 770,486.5C 770.442,461.638 772.775,436.972 777,412.5C 782.656,396.842 793.156,385.676 808.5,379C 832.136,370.181 854.803,372.181 876.5,385C 895.151,399.473 904.318,418.64 904,442.5C 904.628,605.173 904.628,767.839 904,930.5C 905.798,944.466 913.631,952.132 927.5,953.5C 939.272,953.527 946.772,947.86 950,936.5C 951.884,926.6 952.884,916.6 953,906.5C 954.082,817.838 954.582,729.171 954.5,640.5C 954.58,551.483 954.08,462.483 953,373.5C 955.034,351.595 965.534,335.095 984.5,324C 991.295,320.571 998.295,318.071 1005.5,316.5 Z"/></g>
</svg>
