<svg width="49" height="49" viewBox="0 0 49 49" fill="none" xmlns="http://www.w3.org/2000/svg">
<path d="M6.125 6.125H12.25V12.25H6.125V6.125Z" fill="black"/>
<path d="M18.375 0V18.375H0V0H18.375ZM15.3125 3.0625H3.0625V15.3125H15.3125V3.0625ZM12.25 36.75H6.125V42.875H12.25V36.75Z" fill="black"/>
<path d="M18.375 30.625V49H0V30.625H18.375ZM3.0625 33.6875V45.9375H15.3125V33.6875H3.0625ZM36.75 6.125H42.875V12.25H36.75V6.125Z" fill="black"/>
<path d="M30.625 0V18.375H49V0H30.625ZM45.9375 3.0625V15.3125H33.6875V3.0625H45.9375ZM24.5 3.0625V0H27.5625V6.125H24.5V12.25H21.4375V3.0625H24.5ZM24.5 18.375V12.25H27.5625V18.375H24.5ZM18.375 24.5V21.4375H21.4375V18.375H24.5V24.5H27.5625V21.4375H42.875V24.5H30.625V27.5625H21.4375V24.5H18.375ZM18.375 24.5V27.5625H6.125V24.5H3.0625V27.5625H0V21.4375H9.1875V24.5H18.375ZM49 27.5625H45.9375V21.4375H49V27.5625ZM45.9375 27.5625H42.875V33.6875H49V30.625H45.9375V27.5625ZM33.6875 27.5625H39.8125V30.625H36.75V33.6875H33.6875V27.5625ZM39.8125 36.75V33.6875H36.75V36.75H33.6875V39.8125H27.5625V42.875H36.75V36.75H39.8125ZM39.8125 36.75H49V39.8125H42.875V42.875H39.8125V36.75ZM27.5625 33.6875V36.75H30.625V30.625H21.4375V33.6875H27.5625Z" fill="black"/>
<path d="M21.4375 36.75H24.5V45.9375H36.75V49H21.4375V36.75ZM49 42.875V49H39.8125V45.9375H45.9375V42.875H49Z" fill="black"/>
</svg>
