<svg width="29" height="32" viewBox="0 0 29 32" fill="none" xmlns="http://www.w3.org/2000/svg">
<path d="M21.6017 18C21.0494 18 20.6017 18.4477 20.6017 19C20.6017 19.5523 21.0494 20 21.6017 20V18ZM22.1297 19L22.1299 18H22.1297V19ZM26.5937 22.942L25.6014 23.066L25.6014 23.0662L26.5937 22.942ZM27.1802 27.628L28.1724 27.504L28.1724 27.5038L27.1802 27.628ZM24.2027 31L24.2029 30H24.2027V31ZM4.00065 31V30H4.00044L4.00065 31ZM1.02315 27.628L2.01544 27.752L2.01545 27.7519L1.02315 27.628ZM1.60815 22.942L0.615871 22.818L0.615856 22.8181L1.60815 22.942ZM6.07515 19L6.07477 20H6.07515V19ZM6.60165 20C7.15394 20 7.60165 19.5523 7.60165 19C7.60165 18.4477 7.15394 18 6.60165 18V20ZM20.6014 8.5C20.6014 12.0899 17.6913 15 14.1014 15V17C18.7958 17 22.6014 13.1944 22.6014 8.5H20.6014ZM14.1014 15C10.5116 15 7.60141 12.0899 7.60141 8.5H5.60141C5.60141 13.1944 9.40699 17 14.1014 17V15ZM7.60141 8.5C7.60141 4.91015 10.5116 2 14.1014 2V0C9.40699 0 5.60141 3.80558 5.60141 8.5H7.60141ZM14.1014 2C17.6913 2 20.6014 4.91015 20.6014 8.5H22.6014C22.6014 3.80558 18.7958 0 14.1014 0V2ZM21.6017 20H22.1297V18H21.6017V20ZM22.1294 20C22.9823 20.0002 23.8058 20.3119 24.4451 20.8765L25.769 19.3773C24.7643 18.4902 23.4702 18.0004 22.1299 18L22.1294 20ZM24.4451 20.8765C25.0844 21.4411 25.4956 22.2197 25.6014 23.066L27.5859 22.818C27.4197 21.488 26.7736 20.2645 25.769 19.3773L24.4451 20.8765ZM25.6014 23.0662L26.1879 27.7522L28.1724 27.5038L27.5859 22.8178L25.6014 23.0662ZM26.1879 27.752C26.223 28.0334 26.1979 28.3191 26.1143 28.5901L28.0252 29.1802C28.1926 28.6382 28.2428 28.0669 28.1724 27.504L26.1879 27.752ZM26.1143 28.5901C26.0306 28.8611 25.8902 29.1112 25.7025 29.3238L27.2017 30.6476C27.5771 30.2224 27.8579 29.7222 28.0252 29.1802L26.1143 28.5901ZM25.7025 29.3238C25.5148 29.5364 25.284 29.7066 25.0254 29.8232L25.8475 31.6464C26.3646 31.4133 26.8262 31.0728 27.2017 30.6476L25.7025 29.3238ZM25.0254 29.8232C24.7669 29.9398 24.4865 30.0001 24.2029 30L24.2024 32C24.7697 32.0001 25.3304 31.8796 25.8475 31.6464L25.0254 29.8232ZM24.2027 30H4.00065V32H24.2027V30ZM4.00044 30C3.71682 30.0001 3.43643 29.9398 3.17788 29.8232L2.35576 31.6464C2.87286 31.8796 3.43364 32.0001 4.00087 32L4.00044 30ZM3.17788 29.8232C2.91933 29.7066 2.68854 29.5364 2.50081 29.3238L1.00162 30.6476C1.37707 31.0728 1.83867 31.4133 2.35576 31.6464L3.17788 29.8232ZM2.50081 29.3238C2.31309 29.1112 2.17272 28.8611 2.08904 28.5901L0.17808 29.1802C0.345446 29.7222 0.626169 30.2224 1.00162 30.6476L2.50081 29.3238ZM2.08904 28.5901C2.00536 28.3191 1.98027 28.0334 2.01544 27.752L0.0308713 27.504C-0.039466 28.0669 0.0107142 28.6382 0.17808 29.1802L2.08904 28.5901ZM2.01545 27.7519L2.60045 23.0659L0.615856 22.8181L0.0308561 27.5041L2.01545 27.7519ZM2.60044 23.066C2.70625 22.2193 3.11775 21.4403 3.75757 20.8757L2.43423 19.3761C1.4288 20.2634 0.782148 21.4874 0.615871 22.818L2.60044 23.066ZM3.75757 20.8757C4.39739 20.3111 5.22144 19.9997 6.07477 20L6.07554 18C4.7346 17.9995 3.43966 18.4889 2.43423 19.3761L3.75757 20.8757ZM6.07515 20H6.60165V18H6.07515V20Z" fill="white"/>
</svg>
