<svg width="33" height="35" viewBox="0 0 33 35" fill="none" xmlns="http://www.w3.org/2000/svg">
<path d="M16.3931 10.9844C15.1353 10.9844 13.9058 11.3573 12.86 12.0561C11.8142 12.7549 10.9991 13.7481 10.5178 14.9101C10.0364 16.0721 9.91051 17.3508 10.1559 18.5844C10.4013 19.818 11.0069 20.9511 11.8963 21.8405C12.7857 22.7299 13.9188 23.3356 15.1524 23.5809C16.386 23.8263 17.6647 23.7004 18.8267 23.219C19.9887 22.7377 20.9819 21.9226 21.6807 20.8768C22.3795 19.831 22.7524 18.6015 22.7524 17.3438C22.7505 15.6577 22.0799 14.0413 20.8877 12.8491C19.6955 11.6569 18.0791 10.9863 16.3931 10.9844ZM16.3931 21.3906C15.5927 21.3906 14.8103 21.1533 14.1447 20.7086C13.4792 20.2639 12.9605 19.6319 12.6542 18.8924C12.3479 18.153 12.2678 17.3393 12.424 16.5542C12.5801 15.7692 12.9655 15.0481 13.5315 14.4822C14.0975 13.9162 14.8185 13.5308 15.6036 13.3746C16.3886 13.2185 17.2023 13.2986 17.9417 13.6049C18.6812 13.9112 19.3132 14.4299 19.7579 15.0954C20.2026 15.7609 20.4399 16.5434 20.4399 17.3438C20.4387 18.4167 20.012 19.4453 19.2533 20.204C18.4946 20.9627 17.466 21.3894 16.3931 21.3906Z" fill="white"/>
<path d="M32.2591 22.1363L29.9632 20.2464C30.3702 18.3327 30.3702 16.3548 29.9632 14.4411L32.2591 12.5512C32.5239 12.3342 32.7028 12.0301 32.7638 11.6932C32.8248 11.3564 32.7639 11.0088 32.592 10.7128L30.2352 6.63103C30.0649 6.33404 29.7943 6.10743 29.472 5.99182C29.1497 5.87621 28.7968 5.87917 28.4765 6.00015L25.6899 7.04417C24.2382 5.7326 22.5256 4.74279 20.6645 4.13967L20.1756 1.20778C20.1202 0.869891 19.9463 0.56276 19.6851 0.341438C19.4238 0.120117 19.0923 -0.000926212 18.7499 5.33706e-06H14.0366C13.6942 -0.000914357 13.3627 0.120124 13.1015 0.341428C12.8402 0.562733 12.6663 0.869838 12.611 1.20771L12.1223 4.13967C10.2612 4.74277 8.54859 5.73259 7.09694 7.04417L4.31002 6C3.98973 5.8791 3.63686 5.8762 3.31463 5.99182C2.9924 6.10743 2.72187 6.33401 2.55151 6.63095L0.194854 10.713C0.022978 11.0091 -0.0378889 11.3566 0.0231543 11.6935C0.0841974 12.0303 0.263163 12.3344 0.527998 12.5513L2.82366 14.4411C2.41666 16.3548 2.41666 18.3327 2.82366 20.2464L0.527781 22.1363C0.262988 22.3533 0.0840718 22.6574 0.0230695 22.9943C-0.0379327 23.3311 0.0229634 23.6787 0.194854 23.9747L2.55158 28.0565C2.72196 28.3535 2.99254 28.5801 3.31481 28.6957C3.63709 28.8113 3.99 28.8083 4.31031 28.6874L7.09702 27.6433C8.54867 28.9549 10.2612 29.9447 12.1224 30.5478L12.611 33.4797C12.6664 33.8176 12.8403 34.1247 13.1015 34.346C13.3627 34.5673 13.6942 34.6884 14.0366 34.6875H18.7499C19.0923 34.6884 19.4238 34.5674 19.6851 34.3461C19.9463 34.1248 20.1202 33.8177 20.1756 33.4798L20.6643 30.5478C22.5254 29.9447 24.238 28.9549 25.6897 27.6433L28.4765 28.6875C28.7968 28.8084 29.1497 28.8113 29.4719 28.6957C29.7941 28.5801 30.0647 28.3535 30.235 28.0566L32.5915 23.9745C32.7635 23.6785 32.8244 23.3311 32.7635 22.9942C32.7026 22.6574 32.5238 22.3533 32.2591 22.1363ZM28.5999 26.2642L25.1232 24.9616L24.5968 25.4916C23.1483 26.9516 21.3366 27.9986 19.3485 28.5248L18.6258 28.7153L18.0156 32.375H14.7716L14.1615 28.7153L13.4388 28.5248C11.4507 27.9986 9.63899 26.9516 8.19054 25.4916L7.66408 24.9616L4.18688 26.2642L2.56517 23.4547L5.42898 21.0971L5.23386 20.3764C4.69728 18.3902 4.69728 16.2973 5.23386 14.3111L5.42898 13.5905L2.56517 11.2329L4.18724 8.42336L7.66387 9.72587L8.19032 9.19588C9.63878 7.73594 11.4505 6.68886 13.4386 6.16267L14.1613 5.97218L14.7713 2.31251H18.0156L18.6256 5.97218L19.3483 6.16267C21.3364 6.68886 23.1481 7.73594 24.5966 9.19588L25.123 9.72587L28.5997 8.42336L30.2218 11.2328L27.358 13.5905L27.5531 14.3111C28.0897 16.2973 28.0897 18.3902 27.5531 20.3764L27.358 21.0971L30.2218 23.4546L28.5999 26.2642Z" fill="white"/>
</svg>
