<svg width="36" height="36" viewBox="0 0 36 36" fill="none" xmlns="http://www.w3.org/2000/svg">
<g clip-path="url(#clip0_182_393)">
<path d="M32.69 13.5H30.52C30.3495 13.5 30.21 13.6485 30.21 13.83V31.03H4.79V3.97H24.19C24.3605 3.97 24.5 3.8215 24.5 3.64V1.33C24.5 1.1485 24.3605 1 24.19 1H3.24C2.55412 1 2 1.58987 2 2.32C2 2.32 2 31.9499 2 32.68C2 33.4101 2.55412 34 3.24 34H31.76C32.4459 34 33 33.4101 33 32.68V13.83C33 13.6485 32.8605 13.5 32.69 13.5Z" fill="black"/>
<path d="M18.9244 13.3791L18.7539 17.2074C18.7424 17.4941 18.9533 17.7356 19.2226 17.7436L19.2348 17.7439L22.8082 17.7559C22.8688 17.7545 22.9301 17.7305 22.9738 17.6867L35.9537 4.68997C36.0504 4.59288 36.0553 4.42859 35.9644 4.32596L32.3212 0.214137C32.2743 0.161167 32.2144 0.136832 32.1509 0.134956C32.0873 0.13308 32.026 0.157064 31.9762 0.203954L18.9994 13.2007C18.9542 13.2481 18.9275 13.3118 18.9244 13.3791V13.3791ZM20.8235 14.196L32.0681 2.93745L33.393 4.43061L22.1422 15.6954L20.7582 15.6901L20.8235 14.196V14.196Z" fill="black"/>
</g>
<defs>
<clipPath id="clip0_182_393">
<rect width="36" height="36" fill="black"/>
</clipPath>
</defs>
</svg>
