<svg width="40" height="26" viewBox="0 0 40 26" fill="none" xmlns="http://www.w3.org/2000/svg">
<path d="M8.24252 0.5C6.57252 0.5 5.03002 1.335 4.10127 2.72625L0.625022 7.9225C0.215911 8.5352 -0.00165199 9.25577 2.14722e-05 9.9925V18.2738C-0.00228331 18.8286 0.181015 19.3684 0.520765 19.8071C0.860515 20.2458 1.33721 20.5584 1.87502 20.695L5.11752 21.5163C5.35072 22.6397 5.96321 23.6487 6.85221 24.3741C7.74122 25.0994 8.85265 25.497 10 25.5C12.315 25.5 14.2475 23.8988 14.805 21.75H26.445C27.0025 23.8988 28.935 25.5 31.25 25.5C33.565 25.5 35.4975 23.8988 36.055 21.75H37.5C38.8675 21.75 40 20.6175 40 19.25V14.68C39.9988 13.5658 39.6253 12.484 38.9389 11.6064C38.2524 10.7288 37.2924 10.1057 36.2113 9.83625L29.4525 8.1175L24.57 2.2975C24.103 1.73547 23.5179 1.28309 22.8565 0.972453C22.195 0.661812 21.4733 0.500514 20.7425 0.5H8.24252ZM8.24252 3H13.75V8H3.59377L6.17252 4.1325V4.09375C6.399 3.75359 6.70684 3.47538 7.06811 3.28438C7.42939 3.09337 7.83264 2.99562 8.24127 3H8.24252ZM16.25 3H20.7425C21.4838 3 22.1825 3.3275 22.6563 3.89875L26.0938 8H16.25V3ZM2.50002 10.5H28.5938L35.625 12.2575C36.1646 12.3914 36.6432 12.7034 36.9834 13.143C37.3237 13.5826 37.5057 14.1241 37.5 14.68V19.25H36.055C35.4975 17.1012 33.565 15.5 31.25 15.5C28.935 15.5 27.0025 17.1012 26.445 19.25H14.805C14.2475 17.1012 12.315 15.5 10 15.5C7.78377 15.5 5.92252 16.965 5.27377 18.9762L2.50002 18.275V10.5ZM10 18C11.3963 18 12.5 19.1038 12.5 20.5C12.5 21.8962 11.3963 23 10 23C8.60377 23 7.50002 21.8962 7.50002 20.5C7.50002 19.1038 8.60377 18 10 18ZM31.25 18C32.6463 18 33.75 19.1038 33.75 20.5C33.75 21.8962 32.6463 23 31.25 23C29.8538 23 28.75 21.8962 28.75 20.5C28.75 19.1038 29.8538 18 31.25 18Z" fill="white"/>
</svg>
