<svg width="13" height="13" viewBox="0 0 13 13" fill="none" xmlns="http://www.w3.org/2000/svg">
<path d="M9.49108 0.434206L6.00508 3.92039C4.84314 2.75883 3.68083 1.59614 2.5187 0.434206C1.17433 -0.910169 -0.909547 1.17446 0.433703 2.51921C1.59602 3.68039 2.7587 4.84327 3.9197 6.00521C2.75817 7.16767 1.59617 8.32967 0.433703 9.49121C-0.909547 10.8352 1.17452 12.9193 2.5187 11.5762C3.68064 10.4139 4.84295 9.25139 6.00489 8.08983L9.49089 11.5762C10.8353 12.9202 12.9197 10.8354 11.5759 9.49121C10.4136 8.32889 9.25164 7.16696 8.08895 6.00483C9.25145 4.84252 10.4134 3.68021 11.5759 2.51808C12.9199 1.17446 10.8355 -0.910169 9.49089 0.434956" fill="#373737"/>
</svg>
