<svg width="40" height="40" viewBox="0 0 40 40" fill="none" xmlns="http://www.w3.org/2000/svg">
<path d="M16.5 14.375C16.5 16.9293 14.4293 19 11.875 19C9.32068 19 7.25 16.9293 7.25 14.375C7.25 11.8207 9.32068 9.75 11.875 9.75C14.4293 9.75 16.5 11.8207 16.5 14.375Z" stroke="white" stroke-width="2"/>
<path d="M11.875 22.5625C13.0463 22.5625 14.5421 22.7751 16.048 23.2767C15.2296 23.8388 14.5191 24.4596 13.9374 25.1199C12.7107 26.5113 11.9688 28.2273 11.9688 29.9945V34.25H2.25V27.9688C2.25 26.4526 3.53582 25.1011 5.68975 24.0655C7.77824 23.0614 10.2867 22.5625 11.875 22.5625Z" stroke="white" stroke-width="2"/>
<path d="M15.375 30C15.375 28.1112 16.9257 26.4894 19.3855 25.2766C21.7886 24.0917 24.6845 23.5 26.5625 23.5C28.4405 23.5 31.3364 24.0917 33.7395 25.2766C36.1993 26.4894 37.75 28.1112 37.75 30V36.75H26.5625H15.375V30Z" stroke="white" stroke-width="2"/>
<path d="M32.4375 13.125C32.4375 16.3697 29.8072 19 26.5625 19C23.3178 19 20.6875 16.3697 20.6875 13.125C20.6875 9.88033 23.3178 7.25 26.5625 7.25C29.8072 7.25 32.4375 9.88033 32.4375 13.125Z" stroke="white" stroke-width="2"/>
</svg>
