<svg width="28" height="36" viewBox="0 0 28 36" fill="none" xmlns="http://www.w3.org/2000/svg">
<path d="M15.1413 6.33831L12.8202 6.33331C7.5255 6.31998 2.92908 10.8483 2.89266 16.3333V22.65C2.89266 23.9666 2.73433 25.2516 2.05191 26.3466L1.5975 27.0766C0.90558 28.1833 1.64975 29.6666 2.89266 29.6666H25.1068C26.3497 29.6666 27.0923 28.1833 26.402 27.0766L25.9476 26.3466C25.2667 25.2516 25.1068 23.965 25.1068 22.6483V16.335C25.0435 10.8483 20.436 6.35164 15.1413 6.33831V6.33831Z" stroke="white" stroke-width="2" stroke-linecap="round" stroke-linejoin="round"/>
<path d="M18.75 29.6667C18.75 30.9928 18.2496 32.2645 17.3588 33.2022C16.468 34.1399 15.2598 34.6667 14 34.6667C12.7402 34.6667 11.532 34.1399 10.6412 33.2022C9.75044 32.2645 9.25 30.9928 9.25 29.6667" stroke="white" stroke-width="2" stroke-linecap="round" stroke-linejoin="round"/>
<path d="M14.0002 1.33331C14.84 1.33331 15.6455 1.6845 16.2393 2.30962C16.8332 2.93474 17.1668 3.78259 17.1668 4.66665V6.33331H10.8335V4.66665C10.8335 3.78259 11.1671 2.93474 11.761 2.30962C12.3549 1.6845 13.1603 1.33331 14.0002 1.33331Z" stroke="white" stroke-width="2" stroke-linecap="round" stroke-linejoin="round"/>
</svg>
