<svg width="22" height="22" viewBox="0 0 22 22" fill="none" xmlns="http://www.w3.org/2000/svg">
<path d="M21.6109 19.8883L17.4795 15.757C19.0024 13.7958 19.7207 11.3279 19.488 8.85575C19.2554 6.3836 18.0893 4.09305 16.2272 2.45041C14.3651 0.807776 11.947 -0.0634496 9.46514 0.0141051C6.98328 0.0916599 4.62427 1.11216 2.86837 2.86786C1.11247 4.62355 0.0916832 6.98244 0.013836 9.46429C-0.0640112 11.9461 0.806929 14.3644 2.44935 16.2267C4.09176 18.0889 6.38218 19.2553 8.8543 19.4882C11.3264 19.7212 13.7944 19.0032 15.7558 17.4805L19.8872 21.6119C20.0001 21.7265 20.1345 21.8178 20.2827 21.8802C20.431 21.9427 20.5902 21.9752 20.7511 21.9759C20.9119 21.9765 21.0714 21.9453 21.2201 21.884C21.3689 21.8228 21.504 21.7327 21.6178 21.6189C21.7316 21.5051 21.8217 21.37 21.8829 21.2212C21.9442 21.0725 21.9754 20.913 21.9748 20.7522C21.9741 20.5913 21.9416 20.4321 21.8791 20.2839C21.8166 20.1356 21.7254 20.0012 21.6108 19.8883H21.6109ZM2.46835 9.78125C2.46835 8.33498 2.89722 6.92118 3.70073 5.71865C4.50424 4.51611 5.6463 3.57885 6.98248 3.02539C8.31867 2.47192 9.78897 2.32711 11.2075 2.60926C12.6259 2.89142 13.9289 3.58786 14.9516 4.61054C15.9742 5.63321 16.6707 6.93617 16.9528 8.35466C17.235 9.77314 17.0902 11.2434 16.5367 12.5796C15.9833 13.9158 15.046 15.0579 13.8435 15.8614C12.6409 16.6649 11.2271 17.0938 9.78085 17.0938C7.84213 17.0916 5.98343 16.3205 4.61254 14.9496C3.24165 13.5787 2.47053 11.72 2.46835 9.78125Z" fill="black"/>
</svg>
