<svg width="66" height="66" viewBox="0 0 66 66" fill="none" xmlns="http://www.w3.org/2000/svg">
<path d="M38.5 22H12.8333C12.3471 22 11.8808 21.8068 11.537 21.463C11.1932 21.1192 11 20.6529 11 20.1667V12.8333C11 12.3471 11.1932 11.8808 11.537 11.537C11.8808 11.1932 12.3471 11 12.8333 11H38.5C38.9862 11 39.4525 11.1932 39.7964 11.537C40.1402 11.8808 40.3333 12.3471 40.3333 12.8333V20.1667C40.3333 20.6529 40.1402 21.1192 39.7964 21.463C39.4525 21.8068 38.9862 22 38.5 22ZM14.6667 18.3333H36.6667V14.5567H14.6667V18.3333Z" fill="white"/>
<path d="M38.5 25.8135H12.8333C12.3471 25.8135 11.8808 26.0066 11.537 26.3504C11.1932 26.6943 11 27.1606 11 27.6468V34.8335C11 35.3197 11.1932 35.786 11.537 36.1298C11.8808 36.4737 12.3471 36.6668 12.8333 36.6668H33.66L40.3333 29.8835V27.6468C40.3333 27.1606 40.1402 26.6943 39.7964 26.3504C39.4525 26.0066 38.9862 25.8135 38.5 25.8135ZM36.6667 33.0001H14.6667V29.3335H36.6667V33.0001Z" fill="white"/>
<path d="M20.2766 57.7684V57.6584L20.8633 55.1101H7.33329V7.33341H44V26.1251L47.6666 22.6601V5.50008C47.6666 5.01385 47.4735 4.54754 47.1297 4.20372C46.7858 3.8599 46.3195 3.66675 45.8333 3.66675H5.49996C5.01373 3.66675 4.54741 3.8599 4.2036 4.20372C3.85978 4.54754 3.66663 5.01385 3.66663 5.50008V56.8334C3.66663 57.3196 3.85978 57.786 4.2036 58.1298C4.54741 58.4736 5.01373 58.6667 5.49996 58.6667H20.1666C20.1817 58.3651 20.2185 58.0648 20.2766 57.7684Z" fill="white"/>
<path d="M40.3333 35.1448L38.9033 36.5931C39.2581 36.52 39.5833 36.3434 39.8378 36.0856C40.0923 35.8278 40.2647 35.5005 40.3333 35.1448Z" fill="white"/>
<path d="M11 49.3899C11 49.8762 11.1932 50.3425 11.537 50.6863C11.8808 51.0301 12.3471 51.2233 12.8333 51.2233H21.7067L22.2567 48.8399L22.495 47.8316V47.7399H14.6667V43.9999H26.29L29.9567 40.3333H12.8333C12.3471 40.3333 11.8808 40.5264 11.537 40.8702C11.1932 41.214 11 41.6804 11 42.1666V49.3899Z" fill="white"/>
<path d="M61.3983 30.5618L55.22 24.3835C54.9458 24.1086 54.62 23.8904 54.2614 23.7416C53.9027 23.5927 53.5183 23.5161 53.13 23.5161C52.7417 23.5161 52.3572 23.5927 51.9985 23.7416C51.6399 23.8904 51.3142 24.1086 51.04 24.3835L25.905 49.6652L23.8333 58.4835C23.7557 58.8639 23.754 59.2559 23.8282 59.637C23.9023 60.0182 24.051 60.3809 24.2656 60.7045C24.4801 61.028 24.7565 61.3061 25.0787 61.5227C25.4009 61.7393 25.7627 61.8903 26.1433 61.9668C26.3323 61.9858 26.5227 61.9858 26.7116 61.9668C26.9363 62.0034 27.1653 62.0034 27.39 61.9668L36.2816 60.0052L61.3983 34.8335C61.6727 34.5609 61.8904 34.2367 62.039 33.8796C62.1876 33.5224 62.2641 33.1395 62.2641 32.7527C62.2641 32.3659 62.1876 31.9829 62.039 31.6258C61.8904 31.2687 61.6727 30.9445 61.3983 30.6718V30.5618ZM34.4116 56.6685L27.7016 58.1535L29.3333 51.4985L48.18 32.4502L53.35 37.6202L34.4116 56.6685ZM55.4216 35.5485L50.2516 30.3785L53.1666 27.5002L58.3733 32.7068L55.4216 35.5485Z" fill="white"/>
</svg>
